<?xml version="1.0" standalone="no"?>
<!DOCTYPE svg PUBLIC "-//W3C//DTD SVG 20010904//EN"
 "http://www.w3.org/TR/2001/REC-SVG-20010904/DTD/svg10.dtd">
<svg version="1.0" xmlns="http://www.w3.org/2000/svg"
 width="1536.000000pt" height="1024.000000pt" viewBox="0 0 1536.000000 1024.000000"
 preserveAspectRatio="xMidYMid meet">

<g transform="translate(0.000000,1024.000000) scale(0.100000,-0.100000)"
fill="#000000" stroke="none">
<path d="M0 5120 l0 -5120 7680 0 7680 0 0 5120 0 5120 -7680 0 -7680 0 0
-5120z m6780 894 c133 -38 221 -108 277 -222 37 -74 38 -80 41 -201 l4 -126
-148 0 -148 0 3 52 c6 116 -31 203 -103 240 -43 22 -160 22 -204 -1 -18 -9
-37 -14 -43 -11 -5 4 -8 3 -7 -2 2 -4 -8 -26 -22 -48 -22 -35 -25 -55 -33
-195 -4 -85 -7 -310 -5 -499 2 -189 0 -327 -4 -305 -4 21 -8 215 -9 429 -2
215 -5 346 -8 293 -3 -53 -10 -100 -14 -105 -5 -4 -8 6 -7 22 1 17 1 39 0 50
l-1 20 -9 -20 -9 -20 -1 20 c-1 11 -4 14 -7 8 -3 -9 -31 -13 -88 -13 -71 0
-84 3 -88 18 -3 10 -5 6 -6 -10 0 -16 -5 -28 -10 -28 -7 0 -17 67 -23 159 -2
20 -5 -160 -8 -399 l-6 -435 1 505 0 505 33 69 c39 83 78 129 148 178 132 90
335 119 504 72z m2906 -6 c12 -12 17 -103 9 -164 -11 -88 -28 -42 -23 62 l3
84 -462 0 -463 0 0 -95 0 -95 158 0 c86 0 167 -3 180 -6 l22 -6 -2 -747 -3
-746 102 0 103 0 0 725 1 725 24 28 24 27 156 0 c97 0 155 -4 155 -10 0 -6
-54 -10 -142 -10 -125 -1 -146 -3 -165 -19 l-23 -19 0 -719 c0 -546 -3 -722
-12 -731 -16 -16 -220 -16 -236 0 -9 9 -12 189 -12 749 l0 737 -161 0 c-110
-1 -164 3 -172 11 -8 8 -12 49 -12 113 0 100 0 102 25 109 32 10 916 6 926 -3z
m1132 6 c22 -6 23 -9 20 -118 l-3 -111 -302 -3 c-200 -1 -303 1 -303 8 0 6
100 10 289 10 l290 0 3 95 3 95 -407 0 -408 0 0 -845 0 -845 405 0 405 0 0 95
0 95 -278 0 -278 0 -27 28 -27 28 0 229 0 229 32 33 32 33 235 0 236 0 0 95 0
95 -236 0 -235 0 -30 31 -29 30 0 222 c0 140 4 223 10 224 6 2 10 -75 10 -217
0 -217 0 -219 23 -231 12 -7 22 -16 22 -21 0 -4 102 -8 228 -8 173 -1 231 -4
245 -14 14 -11 17 -29 17 -104 0 -139 14 -132 -259 -132 -297 0 -271 26 -271
-263 0 -215 0 -219 23 -238 20 -17 43 -18 289 -19 170 0 269 -4 273 -10 4 -6
11 -8 16 -5 5 4 9 -35 9 -95 0 -82 -3 -105 -17 -118 -15 -15 -56 -17 -424 -17
-224 0 -411 4 -416 8 -9 10 -17 1658 -8 1695 3 13 16 27 28 32 25 10 779 13
815 4z m1032 -5 c119 -19 209 -89 267 -208 25 -49 28 -70 31 -171 5 -144 -12
-139 -26 8 -13 122 -41 191 -102 250 -89 87 -174 106 -449 100 -175 -3 -189
-5 -241 -29 -99 -46 -164 -121 -195 -223 -10 -33 -14 -177 -16 -603 l-3 -560
32 -65 c38 -78 98 -140 172 -176 l55 -27 235 0 c222 0 238 1 292 23 75 30 150
99 184 168 21 43 28 76 33 147 4 51 12 101 18 112 10 16 12 3 13 -76 0 -121
-18 -182 -78 -261 -39 -52 -60 -70 -126 -103 l-79 -40 -251 0 -251 0 -57 27
c-69 32 -147 107 -181 175 -46 90 -49 132 -45 693 3 504 4 527 25 588 43 128
161 235 276 252 80 12 394 11 467 -1z m1578 -4 l22 -5 -2 -850 c-2 -642 -6
-852 -15 -861 -12 -12 -143 -20 -188 -11 -57 10 -18 22 75 22 l100 0 0 834 c0
459 2 840 5 848 4 10 -14 12 -91 10 -103 -4 -159 7 -89 17 45 7 148 4 183 -4z
m-10925 -10 c132 -28 236 -107 279 -213 22 -54 23 -70 23 -292 0 -201 -3 -243
-18 -287 -38 -107 -113 -175 -238 -214 -51 -16 -89 -19 -237 -17 l-177 2 195
6 c162 5 204 10 246 27 56 22 94 42 80 43 -5 0 -1 9 8 19 10 11 25 17 34 14 9
-4 13 -2 9 4 -4 6 0 14 9 17 10 4 14 12 10 23 -4 10 -4 14 0 10 8 -8 34 11 34
25 0 6 -6 6 -14 -1 -10 -8 -16 -9 -21 -1 -4 6 -3 10 2 9 15 -4 43 13 37 22 -3
5 -10 7 -15 4 -5 -3 -6 1 -2 10 4 12 8 13 13 5 5 -8 10 -8 14 -2 13 22 26 153
24 262 l-1 115 -8 -120 c-4 -66 -12 -133 -18 -150 l-9 -30 -1 38 c-1 45 -20
50 -22 5 l-2 -33 -7 35 c-4 19 -8 27 -9 18 -1 -16 -12 -18 -87 -18 l-86 0 6
-25 c4 -16 2 -25 -5 -25 -8 0 -10 12 -6 35 3 19 2 35 -3 35 -5 0 -9 55 -9 121
0 67 -3 124 -6 128 -4 3 -5 -56 -3 -131 2 -75 0 -134 -4 -131 -5 2 -8 0 -8 -6
0 -5 -3 -18 -6 -28 -5 -15 -4 -15 5 -3 5 8 13 11 17 7 9 -9 1 -18 -20 -21 -21
-3 -57 -37 -50 -47 3 -5 -2 -6 -10 -3 -9 3 -16 1 -16 -5 0 -6 -8 -8 -17 -5
-15 5 -15 3 1 -10 11 -9 15 -16 9 -16 -7 0 -15 4 -18 10 -7 12 -295 12 -310 0
-6 -5 -10 4 -11 23 -1 18 1 24 3 15 2 -10 9 -18 14 -18 12 0 13 17 4 128 -3
48 -15 52 -16 6 -1 -21 -3 -31 -6 -21 -4 14 -17 17 -84 17 l-79 0 -1 -32 c0
-27 -2 -29 -8 -13 -5 11 -18 29 -30 39 -11 11 -21 29 -22 40 0 19 -2 18 -10
-4 -5 -14 -13 -226 -17 -470 l-9 -445 -1 768 -2 767 308 0 c228 0 324 -4 375
-15z m1246 -12 c112 -46 190 -123 232 -230 20 -50 23 -81 27 -232 3 -111 0
-196 -8 -235 -23 -117 -79 -195 -177 -248 -24 -13 -43 -27 -43 -33 0 -5 9 -35
21 -65 52 -135 78 -213 70 -205 -16 18 -93 230 -95 259 -1 25 6 34 49 59 48
28 68 47 60 56 -3 2 -13 -2 -22 -10 -16 -13 -17 -12 -4 4 8 10 21 15 31 12 22
-7 78 81 90 144 18 94 20 123 7 118 -7 -2 -11 -14 -9 -25 2 -12 -2 -22 -7 -22
-6 0 -12 8 -12 18 -1 9 -5 -1 -9 -23 l-7 -40 -2 38 c-1 34 -21 55 -21 22 0
-11 -11 -15 -40 -15 -29 0 -40 4 -40 15 0 8 -4 15 -10 15 -5 0 -10 -16 -10
-35 0 -28 -4 -35 -20 -35 -25 0 -27 27 -2 33 11 3 7 5 -10 6 -14 0 -29 7 -32
14 -3 6 -3 2 0 -10 3 -13 0 -31 -6 -40 -10 -16 -10 -15 -5 5 4 14 2 22 -5 22
-8 0 -10 10 -6 28 3 15 3 21 0 15 -3 -7 -10 -13 -16 -13 -12 0 -37 -30 -37
-45 0 -5 9 1 21 15 l21 25 -8 -25 c-9 -30 -27 -43 -37 -27 -4 6 -10 8 -14 4
-4 -3 -2 -12 4 -20 8 -10 6 -16 -9 -26 -12 -7 -23 -10 -26 -7 -3 3 2 8 11 12
9 3 16 10 16 15 0 4 -21 -1 -46 -13 -38 -16 -69 -20 -180 -22 -73 0 -130 2
-126 6 4 3 68 8 143 10 129 3 138 5 178 31 61 40 71 73 71 220 0 112 -2 127
-23 158 -38 58 -74 69 -219 69 l-128 0 0 -235 c0 -150 -4 -235 -10 -235 -6 0
-11 52 -12 133 l-2 132 -6 -115 c-3 -63 -7 -102 -8 -87 -3 43 -22 58 -46 35
-21 -20 -46 -24 -46 -8 0 6 -28 10 -62 10 -70 1 -97 14 -100 51 -2 13 -5 -217
-8 -511 -5 -525 -5 -520 -8 288 l-2 823 338 -3 c320 -3 340 -4 391 -25z m804
-760 c-3 -434 -7 -790 -9 -792 -2 -2 -5 243 -6 545 -1 302 -5 504 -8 449 -3
-55 -7 -86 -8 -70 -1 17 -7 37 -12 45 -7 11 -10 -6 -12 -55 -1 -49 -3 -57 -5
-27 l-4 42 -94 0 -94 0 -4 43 c-2 29 -4 21 -5 -27 -3 -114 -16 -65 -22 87 -4
91 -8 -47 -10 -383 l-4 -525 -7 365 c-3 201 -7 528 -8 728 l-1 362 160 0 159
0 -6 -787z m600 775 c3 -7 51 -128 107 -268 130 -323 300 -759 307 -785 2 -11
-9 8 -25 43 -16 34 -32 59 -37 55 -4 -5 -5 -2 -1 5 8 14 -24 102 -36 102 -5 0
-8 10 -8 23 0 12 -9 41 -21 62 -11 22 -22 47 -23 55 -6 38 -19 69 -27 64 -5
-3 -9 -2 -8 3 3 20 -2 27 -11 13 -8 -12 -10 -10 -10 8 0 13 4 20 10 17 6 -3 7
1 4 9 -5 13 -8 13 -19 2 -16 -15 -22 -56 -12 -73 5 -8 3 -13 -3 -13 -7 0 -14
9 -17 20 -3 11 -9 17 -14 14 -5 -3 -10 0 -10 5 -3 26 -4 30 -11 37 -5 4 -8 -2
-8 -13 0 -11 -7 -26 -15 -33 -10 -9 -15 -9 -15 -1 0 6 -7 11 -15 11 -9 0 -12
6 -9 15 5 11 -1 15 -20 15 -20 0 -26 -5 -26 -21 0 -13 4 -18 12 -13 6 4 8 3 4
-4 -3 -6 -2 -22 4 -36 8 -21 7 -26 -6 -26 -10 0 -14 6 -10 15 3 8 1 15 -4 15
-5 0 -7 7 -4 15 4 8 1 15 -5 15 -14 0 -14 -13 1 -61 10 -35 12 -37 25 -21 13
15 13 15 3 -5 -9 -19 -5 -38 24 -105 57 -138 148 -366 160 -403 17 -53 -52
104 -139 320 -54 132 -102 244 -106 249 -5 5 -7 -220 -5 -500 3 -469 3 -481
-4 -154 -4 195 -8 430 -9 523 -1 141 -3 167 -16 167 -8 0 -15 -4 -15 -10 0 -5
-9 -10 -19 -10 -11 0 -22 -6 -24 -12 -3 -7 -6 -3 -6 10 -1 20 -6 22 -55 22
-34 0 -56 5 -59 13 -3 6 -6 1 -6 -13 -1 -20 -3 -22 -11 -10 -9 13 -10 13 -10
0 -1 -13 -2 -13 -9 0 -5 8 -11 52 -13 97 -1 46 -6 83 -10 83 -5 0 -9 -273 -11
-607 -2 -544 -2 -518 -5 240 l-2 847 149 0 c110 0 150 -3 154 -12z m715 -735
c-1 -584 -3 -683 -8 -453 -4 162 -9 408 -11 545 -2 151 -5 201 -6 128 l-4
-123 -119 0 -119 0 -4 108 c-1 59 -3 -33 -2 -205 0 -172 -3 -309 -7 -305 -4 4
-9 243 -10 530 l-3 522 148 0 147 0 -2 -747z m2295 610 l-3 -138 -260 -3 -260
-2 0 -224 0 -224 55 5 c31 3 130 2 220 -2 l165 -7 0 -133 0 -132 -197 4 c-109
3 -200 7 -202 9 -2 2 83 4 190 4 l194 0 -3 120 -3 120 -220 0 c-147 0 -219 3
-219 11 0 5 -5 7 -10 4 -6 -4 -9 -1 -8 7 2 7 10 16 18 20 12 5 11 7 -4 7 -13
1 -17 7 -14 19 4 15 1 18 -18 14 -19 -3 -24 0 -24 17 0 11 -4 21 -10 21 -5 0
-10 -9 -10 -19 0 -11 -4 -23 -10 -26 -5 -3 -10 -1 -10 4 0 7 -29 11 -74 11
-70 0 -74 1 -80 25 -21 83 -26 -12 -29 -537 -2 -438 -3 -371 -5 300 l-2 862
419 0 418 0 -4 -137z m4527 111 c6 -14 10 -159 10 -338 0 -289 1 -314 18 -329
15 -14 51 -17 242 -19 168 -2 224 -6 228 -15 3 -10 -49 -13 -236 -13 l-241 0
-20 26 c-20 26 -21 38 -21 360 l0 334 -99 0 c-56 0 -103 4 -106 10 -4 6 33 10
105 10 109 0 111 0 120 -26z m-235 -837 l0 -847 105 0 105 0 -2 352 -3 353 30
33 30 32 220 0 221 0 24 -27 24 -28 1 -359 c0 -271 -3 -357 -11 -349 -9 9 -13
113 -16 348 -2 186 -8 348 -13 361 l-10 24 -213 0 c-282 0 -257 26 -256 -271
3 -378 0 -452 -17 -474 -14 -18 -25 -20 -117 -17 -82 2 -104 6 -114 19 -10 13
-13 201 -13 861 0 670 3 843 13 839 9 -3 12 -182 12 -850z m755 497 c0 -312
-6 -389 -24 -321 -8 30 -8 538 0 615 15 141 24 30 24 -294z m-1337 108 l45
-49 -2 -79 c-1 -106 -20 -108 -24 -2 l-3 83 -42 37 -42 37 -180 1 -180 0 -48
-43 -47 -44 0 -549 0 -550 43 -42 43 -42 184 0 184 0 38 37 c30 29 38 45 38
73 0 62 12 140 21 134 5 -3 9 -43 9 -90 0 -84 -1 -86 -37 -130 l-37 -44 -216
0 -215 0 -45 48 -45 47 3 560 2 560 47 47 47 48 207 0 206 0 46 -48z m252
-232 c4 -6 -32 -10 -99 -10 -64 0 -106 4 -106 10 0 6 40 10 99 10 56 0 103 -4
106 -10z m-5848 -192 c-3 -7 -5 -2 -5 12 0 14 2 19 5 13 2 -7 2 -19 0 -25z
m-897 -13 c0 -5 -5 -3 -10 5 -5 8 -10 20 -10 25 0 6 5 3 10 -5 5 -8 10 -19 10
-25z m-85 15 c3 -5 2 -10 -4 -10 -5 0 -13 5 -16 10 -3 6 -2 10 4 10 5 0 13 -4
16 -10z m-1568 -42 c-3 -7 -5 -2 -5 12 0 14 2 19 5 13 2 -7 2 -19 0 -25z m200
-5 c-3 -10 -5 -4 -5 12 0 17 2 24 5 18 2 -7 2 -21 0 -30z m1475 1 c-3 -19 -7
-22 -13 -12 -7 11 -11 10 -19 -2 -7 -11 -10 -11 -10 -2 0 7 7 15 15 18 8 4 15
13 15 21 0 8 4 12 9 9 4 -3 6 -17 3 -32z m-2660 -34 c-6 -39 -9 -38 -14 4 -2
22 0 32 7 29 6 -2 9 -17 7 -33z m558 30 c0 -5 -5 -10 -11 -10 -5 0 -7 5 -4 10
3 6 8 10 11 10 2 0 4 -4 4 -10z m580 -10 c0 -5 -4 -10 -10 -10 -5 0 -10 5 -10
10 0 6 5 10 10 10 6 0 10 -4 10 -10z m437 -12 c-3 -8 -6 -5 -6 6 -1 11 2 17 5
13 3 -3 4 -12 1 -19z m963 6 c0 -8 -4 -12 -10 -9 -5 3 -10 10 -10 16 0 5 5 9
10 9 6 0 10 -7 10 -16z m2347 -10 c-3 -3 -12 -4 -19 -1 -8 3 -5 6 6 6 11 1 17
-2 13 -5z m-3690 -26 c-3 -8 -6 -5 -6 6 -1 11 2 17 5 13 3 -3 4 -12 1 -19z
m3986 15 c-51 -2 -136 -2 -190 0 -54 1 -12 3 92 3 105 0 149 -2 98 -3z m-4303
-7 c0 -2 -7 -6 -15 -10 -8 -3 -15 -1 -15 4 0 6 7 10 15 10 8 0 15 -2 15 -4z
m-1143 -28 c-3 -8 -6 -5 -6 6 -1 11 2 17 5 13 3 -3 4 -12 1 -19z m-17 2 c0 -5
-4 -10 -10 -10 -5 0 -10 5 -10 10 0 6 5 10 10 10 6 0 10 -4 10 -10z m1170 6
c0 -2 -7 -7 -16 -10 -8 -3 -12 -2 -9 4 6 10 25 14 25 6z m310 -37 c0 -6 -4 -7
-10 -4 -5 3 -10 11 -10 16 0 6 5 7 10 4 6 -3 10 -11 10 -16z m3730 -158 c0 -5
-7 -8 -16 -7 -13 1 -15 -27 -16 -219 l-2 -220 -5 215 c-3 118 -2 221 3 228 10
14 36 16 36 3z m-4173 -63 c9 -15 83 -224 89 -253 8 -34 -16 23 -56 140 l-39
110 -80 3 -81 3 -2 -163 -2 -163 -3 155 c-2 85 -1 160 1 167 7 18 162 18 173
1z m-1370 -300 c-1 -57 -3 -11 -3 102 0 113 2 159 3 103 2 -57 2 -149 0 -205z
m4981 100 l-2 -63 -3 58 -4 58 -139 -2 -139 -1 -4 -66 -3 -67 -2 73 -2 72 150
0 150 0 -2 -62z m4984 26 c67 -11 29 -24 -72 -24 -90 0 -137 12 -93 23 28 7
124 7 165 1z m-6668 -120 c15 -37 25 -68 23 -70 -2 -3 -13 19 -25 48 -11 29
-23 61 -27 71 -4 9 -5 17 -2 17 3 0 17 -30 31 -66z m-1509 -28 c14 -38 24 -70
22 -72 -2 -2 -17 33 -34 77 -18 45 -28 78 -23 73 5 -5 21 -40 35 -78z m3182
-8 c-2 -13 -4 -5 -4 17 -1 22 1 32 4 23 2 -10 2 -28 0 -40z m-990 5 c-3 -10
-5 -4 -5 12 0 17 2 24 5 18 2 -7 2 -21 0 -30z m698 -2 c-8 -38 -71 -106 -105
-116 -16 -4 -10 3 18 20 41 26 82 86 82 121 0 10 3 15 6 11 3 -3 3 -19 -1 -36z
m-3181 -31 c5 -17 4 -20 -2 -10 -5 8 -13 26 -16 40 -5 17 -4 20 2 10 5 -8 13
-26 16 -40z m2800 4 c3 -8 2 -12 -4 -9 -6 3 -10 10 -10 16 0 14 7 11 14 -7z
m-285 -69 c0 -5 -4 -3 -9 5 -5 8 -9 22 -9 30 0 16 17 -16 18 -35z m312 28 c13
-16 12 -17 -3 -4 -10 7 -18 15 -18 17 0 8 8 3 21 -13z m-971 -38 c0 -5 -5 -3
-10 5 -5 8 -10 20 -10 25 0 6 5 3 10 -5 5 -8 10 -19 10 -25z m2718 -107 l-2
-143 -3 137 -4 138 -272 3 -272 2 278 3 277 2 -2 -142z m-1687 107 c19 -8 27
-14 19 -14 -14 0 -72 28 -59 29 4 0 22 -7 40 -15z m550 -18 c-10 -9 -11 -8 -5
6 3 10 9 15 12 12 3 -3 0 -11 -7 -18z m-3091 -22 c0 -5 -5 -3 -10 5 -5 8 -10
20 -10 25 0 6 5 3 10 -5 5 -8 10 -19 10 -25z m2189 5 c11 -24 11 -24 -3 -6 -9
11 -16 24 -16 30 0 12 5 7 19 -24z m489 13 c-15 -2 -42 -2 -60 0 -18 2 -6 4
27 4 33 0 48 -2 33 -4z m382 -52 c-5 -11 -15 -23 -21 -27 -6 -3 -3 5 6 20 20
30 30 35 15 7z m-839 -8 c13 -16 12 -17 -3 -4 -10 7 -18 15 -18 17 0 8 8 3 21
-13z m69 -68 c13 -14 21 -25 18 -25 -2 0 -15 11 -28 25 -13 14 -21 25 -18 25
2 0 15 -11 28 -25z m720 21 c0 -2 -8 -10 -17 -17 -16 -13 -17 -12 -4 4 13 16
21 21 21 13z m-40 -30 c0 -2 -8 -10 -17 -17 -16 -13 -17 -12 -4 4 13 16 21 21
21 13z"/>
<path d="M6766 5728 c3 -5 10 -6 15 -3 13 9 11 12 -6 12 -8 0 -12 -4 -9 -9z"/>
<path d="M7081 5624 c0 -11 3 -14 6 -6 3 7 2 16 -1 19 -3 4 -6 -2 -5 -13z"/>
<path d="M6373 5560 c0 -25 2 -35 4 -22 2 12 2 32 0 45 -2 12 -4 2 -4 -23z"/>
<path d="M6821 5584 c0 -11 3 -14 6 -6 3 7 2 16 -1 19 -3 4 -6 -2 -5 -13z"/>
<path d="M7083 5560 c0 -25 2 -35 4 -22 2 12 2 32 0 45 -2 12 -4 2 -4 -23z"/>
<path d="M6821 5523 c-1 -34 3 -43 15 -43 12 0 14 3 6 13 -6 6 -12 26 -15 42
-3 24 -4 22 -6 -12z"/>
<path d="M7058 5503 c6 -2 18 -2 25 0 6 3 1 5 -13 5 -14 0 -19 -2 -12 -5z"/>
<path d="M6870 5488 c0 -5 51 -7 113 -6 115 1 101 5 -36 10 -42 2 -77 0 -77
-4z"/>
<path d="M6131 5454 c0 -11 3 -14 6 -6 3 7 2 16 -1 19 -3 4 -6 -2 -5 -13z"/>
<path d="M6351 5454 c0 -11 3 -14 6 -6 3 7 2 16 -1 19 -3 4 -6 -2 -5 -13z"/>
<path d="M2128 5482 l-3 -252 127 0 c152 0 196 13 230 69 21 33 23 48 23 181
0 120 -3 151 -18 177 -32 59 -56 67 -214 73 l-142 5 -3 -253z"/>
<path d="M2551 5374 c0 -11 3 -14 6 -6 3 7 2 16 -1 19 -3 4 -6 -2 -5 -13z"/>
<path d="M2669 5063 c-13 -16 -12 -17 4 -4 16 13 21 21 13 21 -2 0 -10 -8 -17
-17z"/>
<path d="M3721 5594 c0 -11 3 -14 6 -6 3 7 2 16 -1 19 -3 4 -6 -2 -5 -13z"/>
<path d="M3723 5468 c1 -36 -2 -70 -6 -74 -4 -4 -7 -12 -7 -18 0 -6 5 -3 11 8
9 15 13 16 21 5 7 -10 8 -8 2 6 -4 11 -11 47 -15 80 l-7 60 1 -67z"/>
<path d="M3031 5454 c0 -11 3 -14 6 -6 3 7 2 16 -1 19 -3 4 -6 -2 -5 -13z"/>
<path d="M5306 5474 c-4 -14 -5 -28 -3 -31 3 -2 8 8 11 23 4 14 5 28 3 31 -3
2 -8 -8 -11 -23z"/>
<path d="M5340 5466 c0 -8 4 -17 9 -20 5 -4 7 3 4 14 -6 23 -13 26 -13 6z"/>
<path d="M5135 5350 c3 -5 8 -10 11 -10 2 0 4 5 4 10 0 6 -5 10 -11 10 -5 0
-7 -4 -4 -10z"/>
<path d="M5592 5620 c0 -14 2 -19 5 -12 2 6 2 18 0 25 -3 6 -5 1 -5 -13z"/>
<path d="M7347 5483 c-11 -10 -8 -43 3 -43 6 0 10 11 10 25 0 26 -2 29 -13 18z"/>
</g>
</svg>
